Oxygen-Light.ufo
<glyph name="three" format="1">
  <advance width="1115"/>
  <unicode hex="0033"/>
  <outline>
    <contour>
      <point x="532" y="-23" type="curve" smooth="yes"/>
      <point x="335" y="-23"/>
      <point x="195" y="49"/>
<<<<<<< HEAD
      <point x="156" y="86" type="curve" smooth="no"/>
      <point x="203" y="189" type="line" smooth="no"/>
=======
      <point x="156" y="86" type="curve"/>
      <point x="203" y="189" type="line"/>
>>>>>>> 91749908f94e59e2ae39cb29b03bd24938bc6ec0
      <point x="276" y="132"/>
      <point x="369" y="83"/>
      <point x="520" y="83" type="curve" smooth="yes"/>
      <point x="727" y="83"/>
      <point x="866" y="195"/>
      <point x="866" y="404" type="curve" smooth="yes"/>
      <point x="866" y="674"/>
      <point x="668" y="737"/>
      <point x="424" y="745" type="curve" smooth="yes"/>
      <point x="398" y="746"/>
      <point x="392" y="745"/>
<<<<<<< HEAD
      <point x="366" y="745" type="curve" smooth="no"/>
      <point x="366" y="857" type="line" smooth="no"/>
      <point x="410" y="857" type="line" smooth="no"/>
=======
      <point x="366" y="745" type="curve"/>
      <point x="366" y="857" type="line"/>
      <point x="410" y="857" type="line"/>
>>>>>>> 91749908f94e59e2ae39cb29b03bd24938bc6ec0
      <point x="613" y="864"/>
      <point x="826" y="904"/>
      <point x="826" y="1147" type="curve" smooth="yes"/>
      <point x="826" y="1348"/>
      <point x="693" y="1409"/>
      <point x="534" y="1409" type="curve" smooth="yes"/>
      <point x="400" y="1409"/>
      <point x="276" y="1368"/>
<<<<<<< HEAD
      <point x="203" y="1302" type="curve" smooth="no"/>
      <point x="157" y="1406" type="line" smooth="no"/>
=======
      <point x="203" y="1302" type="curve"/>
      <point x="157" y="1406" type="line"/>
>>>>>>> 91749908f94e59e2ae39cb29b03bd24938bc6ec0
      <point x="235" y="1473"/>
      <point x="361" y="1516"/>
      <point x="569" y="1516" type="curve" smooth="yes"/>
      <point x="756" y="1516"/>
      <point x="948" y="1407"/>
      <point x="948" y="1166" type="curve" smooth="yes"/>
      <point x="948" y="957"/>
      <point x="846" y="852"/>
<<<<<<< HEAD
      <point x="687" y="804" type="curve" smooth="no"/>
=======
      <point x="687" y="804" type="curve"/>
>>>>>>> 91749908f94e59e2ae39cb29b03bd24938bc6ec0
      <point x="823" y="769"/>
      <point x="991" y="680"/>
      <point x="995" y="410" type="curve" smooth="yes"/>
      <point x="999" y="153"/>
      <point x="811" y="-23"/>
    </contour>
  </outline>
</glyph>
<glyph name="nine" format="1">
  <advance width="1142"/>
  <unicode hex="0039"/>
  <outline>
    <contour>
<<<<<<< HEAD
      <point x="265" y="0" type="line" smooth="no"/>
      <point x="824" y="677" type="line" smooth="no"/>
=======
      <point x="265" y="0" type="line"/>
      <point x="824" y="677" type="line"/>
>>>>>>> 91749908f94e59e2ae39cb29b03bd24938bc6ec0
      <point x="751.36" y="630"/>
      <point x="650.254" y="596"/>
      <point x="557" y="596" type="curve" smooth="yes"/>
      <point x="317.418" y="596"/>
      <point x="93" y="769"/>
      <point x="93" y="1046" type="curve" smooth="yes"/>
      <point x="93" y="1299"/>
      <point x="278" y="1514"/>
      <point x="581" y="1514" type="curve" smooth="yes"/>
      <point x="899" y="1514"/>
      <point x="1056" y="1285"/>
      <point x="1056" y="1030" type="curve" smooth="yes"/>
      <point x="1056" y="825"/>
      <point x="1003" y="733"/>
      <point x="824" y="478" type="curve" smooth="yes"/>
      <point x="824" y="477.066"/>
      <point x="428" y="0"/>
<<<<<<< HEAD
      <point x="428" y="0" type="curve" smooth="no"/>
=======
      <point x="428" y="0" type="curve"/>
>>>>>>> 91749908f94e59e2ae39cb29b03bd24938bc6ec0
    </contour>
    <contour>
      <point x="577" y="704" type="curve" smooth="yes"/>
      <point x="822.368" y="704"/>
      <point x="932" y="873.023"/>
      <point x="932" y="1050" type="curve" smooth="yes"/>
      <point x="932" y="1233.57"/>
      <point x="813.91" y="1407"/>
      <point x="584" y="1407" type="curve" smooth="yes"/>
      <point x="355.744" y="1407"/>
      <point x="219" y="1227.5"/>
      <point x="219" y="1047" type="curve" smooth="yes"/>
      <point x="219" y="852"/>
      <point x="357.988" y="704"/>
    </contour>
  </outline>
</glyph>
<glyph name="semicolon" format="1">
  <advance width="550"/>
<<<<<<< HEAD
  <unicode hex="003b"/>
  <outline>
    <contour>
      <point x="152" y="-302" type="line" smooth="no"/>
      <point x="208" y="165" type="line" smooth="no"/>
      <point x="370" y="165" type="line" smooth="no"/>
      <point x="245" y="-302" type="line" smooth="no"/>
    </contour>
    <contour>
      <point x="197" y="928" type="line" smooth="no"/>
      <point x="197" y="1136" type="line" smooth="no"/>
      <point x="376" y="1136" type="line" smooth="no"/>
      <point x="376" y="928" type="line" smooth="no"/>
=======
  <unicode hex="003B"/>
  <outline>
    <contour>
      <point x="152" y="-302" type="line"/>
      <point x="208" y="165" type="line"/>
      <point x="370" y="165" type="line"/>
      <point x="245" y="-302" type="line"/>
    </contour>
    <contour>
      <point x="197" y="928" type="line"/>
      <point x="197" y="1136" type="line"/>
      <point x="376" y="1136" type="line"/>
      <point x="376" y="928" type="line"/>
>>>>>>> 91749908f94e59e2ae39cb29b03bd24938bc6ec0
    </contour>
  </outline>
</glyph>
<glyph name="less" format="1">
  <advance width="1165"/>
<<<<<<< HEAD
  <unicode hex="003c"/>
  <outline>
    <contour>
      <point x="1052" y="113" type="line" smooth="no"/>
      <point x="98" y="579" type="line" smooth="no"/>
      <point x="98" y="658" type="line" smooth="no"/>
      <point x="1054" y="1158" type="line" smooth="no"/>
      <point x="1054" y="1032" type="line" smooth="no"/>
      <point x="247" y="622" type="line" smooth="no"/>
      <point x="1052" y="240" type="line" smooth="no"/>
=======
  <unicode hex="003C"/>
  <outline>
    <contour>
      <point x="1052" y="113" type="line"/>
      <point x="98" y="579" type="line"/>
      <point x="98" y="658" type="line"/>
      <point x="1054" y="1158" type="line"/>
      <point x="1054" y="1032" type="line"/>
      <point x="247" y="622" type="line"/>
      <point x="1052" y="240" type="line"/>
>>>>>>> 91749908f94e59e2ae39cb29b03bd24938bc6ec0
    </contour>
  </outline>
</glyph>
<glyph name="H" format="1">
  <advance width="1474"/>
  <unicode hex="0048"/>
  <outline>
    <contour>
<<<<<<< HEAD
      <point x="182" y="0" type="line" smooth="no"/>
      <point x="182" y="1488" type="line" smooth="no"/>
      <point x="310" y="1488" type="line" smooth="no"/>
      <point x="310" y="830" type="line" smooth="no"/>
      <point x="1164" y="830" type="line" smooth="no"/>
      <point x="1164" y="1488" type="line" smooth="no"/>
      <point x="1292" y="1488" type="line" smooth="no"/>
      <point x="1292" y="0" type="line" smooth="no"/>
      <point x="1164" y="0" type="line" smooth="no"/>
      <point x="1164" y="718" type="line" smooth="no"/>
      <point x="310" y="718" type="line" smooth="no"/>
      <point x="310" y="0" type="line" smooth="no"/>
=======
      <point x="182" y="0" type="line"/>
      <point x="182" y="1488" type="line"/>
      <point x="310" y="1488" type="line"/>
      <point x="310" y="830" type="line"/>
      <point x="1164" y="830" type="line"/>
      <point x="1164" y="1488" type="line"/>
      <point x="1292" y="1488" type="line"/>
      <point x="1292" y="0" type="line"/>
      <point x="1164" y="0" type="line"/>
      <point x="1164" y="718" type="line"/>
      <point x="310" y="718" type="line"/>
      <point x="310" y="0" type="line"/>
>>>>>>> 91749908f94e59e2ae39cb29b03bd24938bc6ec0
    </contour>
  </outline>
</glyph>
<glyph name="J" format="1">
  <advance width="512"/>
<<<<<<< HEAD
  <unicode hex="004a"/>
  <outline>
    <contour>
      <point x="1" y="-138" type="line" smooth="no"/>
      <point x="-20" y="-46" type="line" smooth="no"/>
      <point x="40" y="-43" type="line" smooth="no"/>
      <point x="234" y="-43"/>
      <point x="234" y="78"/>
      <point x="234" y="216" type="curve" smooth="yes"/>
      <point x="234" y="1514" type="line" smooth="no"/>
      <point x="367" y="1514" type="line" smooth="no"/>
=======
  <unicode hex="004A"/>
  <outline>
    <contour>
      <point x="1" y="-138" type="line"/>
      <point x="-20" y="-46" type="line"/>
      <point x="40" y="-43" type="line"/>
      <point x="234" y="-43"/>
      <point x="234" y="78"/>
      <point x="234" y="216" type="curve" smooth="yes"/>
      <point x="234" y="1514" type="line"/>
      <point x="367" y="1514" type="line"/>
>>>>>>> 91749908f94e59e2ae39cb29b03bd24938bc6ec0
      <point x="367" y="303" type="line" smooth="yes"/>
      <point x="367" y="7"/>
      <point x="366" y="-138"/>
      <point x="13" y="-138" type="curve" smooth="yes"/>
    </contour>
  </outline>
</glyph>
<glyph name="L" format="1">
  <advance width="998"/>
<<<<<<< HEAD
  <unicode hex="004c"/>
  <outline>
    <contour>
      <point x="182" y="0" type="line" smooth="no"/>
      <point x="182" y="1488" type="line" smooth="no"/>
      <point x="311" y="1488" type="line" smooth="no"/>
      <point x="311" y="113" type="line" smooth="no"/>
      <point x="980" y="113" type="line" smooth="no"/>
      <point x="974" y="0" type="line" smooth="no"/>
=======
  <unicode hex="004C"/>
  <outline>
    <contour>
      <point x="182" y="0" type="line"/>
      <point x="182" y="1488" type="line"/>
      <point x="311" y="1488" type="line"/>
      <point x="311" y="113" type="line"/>
      <point x="980" y="113" type="line"/>
      <point x="974" y="0" type="line"/>
>>>>>>> 91749908f94e59e2ae39cb29b03bd24938bc6ec0
    </contour>
  </outline>
</glyph>
<glyph name="asciicircum" format="1">
  <advance width="1158"/>
<<<<<<< HEAD
  <unicode hex="005e"/>
  <outline>
    <contour>
      <point x="84" y="558" type="line" smooth="no"/>
      <point x="521" y="1488" type="line" smooth="no"/>
      <point x="611" y="1488" type="line" smooth="no"/>
      <point x="1071" y="558" type="line" smooth="no"/>
      <point x="958" y="558" type="line" smooth="no"/>
      <point x="565" y="1356" type="line" smooth="no"/>
      <point x="200" y="558" type="line" smooth="no"/>
=======
  <unicode hex="005E"/>
  <outline>
    <contour>
      <point x="84" y="558" type="line"/>
      <point x="521" y="1488" type="line"/>
      <point x="611" y="1488" type="line"/>
      <point x="1071" y="558" type="line"/>
      <point x="958" y="558" type="line"/>
      <point x="565" y="1356" type="line"/>
      <point x="200" y="558" type="line"/>
>>>>>>> 91749908f94e59e2ae39cb29b03bd24938bc6ec0
    </contour>
  </outline>
</glyph>
<glyph name="underscore" format="1">
  <advance width="1053"/>
<<<<<<< HEAD
  <unicode hex="005f"/>
  <outline>
    <contour>
      <point x="73" y="-108" type="line" smooth="no"/>
      <point x="73" y="0" type="line" smooth="no"/>
      <point x="978" y="0" type="line" smooth="no"/>
      <point x="978" y="-108" type="line" smooth="no"/>
=======
  <unicode hex="005F"/>
  <outline>
    <contour>
      <point x="73" y="-108" type="line"/>
      <point x="73" y="0" type="line"/>
      <point x="978" y="0" type="line"/>
      <point x="978" y="-108" type="line"/>
>>>>>>> 91749908f94e59e2ae39cb29b03bd24938bc6ec0
    </contour>
  </outline>
</glyph>
<glyph name="h" format="1">
  <advance width="1149"/>
  <unicode hex="0068"/>
  <outline>
    <contour>
<<<<<<< HEAD
      <point x="147" y="0" type="line" smooth="no"/>
      <point x="147" y="1521" type="line" smooth="no"/>
      <point x="271" y="1532" type="line" smooth="no"/>
      <point x="271" y="1009" type="line" smooth="yes"/>
      <point x="271" y="949"/>
      <point x="270" y="993"/>
      <point x="268" y="930" type="curve" smooth="no"/>
=======
      <point x="147" y="0" type="line"/>
      <point x="147" y="1521" type="line"/>
      <point x="271" y="1532" type="line"/>
      <point x="271" y="1009" type="line" smooth="yes"/>
      <point x="271" y="949"/>
      <point x="270" y="993"/>
      <point x="268" y="930" type="curve"/>
>>>>>>> 91749908f94e59e2ae39cb29b03bd24938bc6ec0
      <point x="360" y="1058"/>
      <point x="491" y="1116"/>
      <point x="652" y="1116" type="curve" smooth="yes"/>
      <point x="904" y="1116"/>
      <point x="1009" y="956"/>
      <point x="1009" y="685" type="curve" smooth="yes"/>
<<<<<<< HEAD
      <point x="1009" y="0" type="line" smooth="no"/>
      <point x="886" y="0" type="line" smooth="no"/>
=======
      <point x="1009" y="0" type="line"/>
      <point x="886" y="0" type="line"/>
>>>>>>> 91749908f94e59e2ae39cb29b03bd24938bc6ec0
      <point x="886" y="661" type="line" smooth="yes"/>
      <point x="886" y="899"/>
      <point x="826" y="1011"/>
      <point x="628" y="1011" type="curve" smooth="yes"/>
      <point x="433" y="1011"/>
      <point x="301" y="896"/>
<<<<<<< HEAD
      <point x="273" y="741" type="curve" smooth="no"/>
      <point x="271" y="701"/>
      <point x="271" y="660"/>
      <point x="271" y="622" type="curve" smooth="yes"/>
      <point x="271" y="0" type="line" smooth="no"/>
=======
      <point x="273" y="741" type="curve"/>
      <point x="271" y="701"/>
      <point x="271" y="660"/>
      <point x="271" y="622" type="curve" smooth="yes"/>
      <point x="271" y="0" type="line"/>
>>>>>>> 91749908f94e59e2ae39cb29b03bd24938bc6ec0
    </contour>
  </outline>
</glyph>
<glyph name="i" format="1">
  <advance width="445"/>
  <unicode hex="0069"/>
  <outline>
    <contour>
<<<<<<< HEAD
      <point x="169" y="0" type="line" smooth="no"/>
      <point x="169" y="1096" type="line" smooth="no"/>
      <point x="294" y="1096" type="line" smooth="no"/>
      <point x="294" y="0" type="line" smooth="no"/>
    </contour>
    <contour>
      <point x="169" y="1320" type="line" smooth="no"/>
      <point x="169" y="1488" type="line" smooth="no"/>
      <point x="293" y="1488" type="line" smooth="no"/>
      <point x="293" y="1320" type="line" smooth="no"/>
    </contour>
  </outline>
=======
      <point x="169" y="0" type="line"/>
      <point x="169" y="1096" type="line"/>
      <point x="294" y="1096" type="line"/>
      <point x="294" y="0" type="line"/>
    </contour>
    <contour>
      <point x="169" y="1320" type="line"/>
      <point x="169" y="1488" type="line"/>
      <point x="293" y="1488" type="line"/>
      <point x="293" y="1320" type="line"/>
    </contour>
  </outline>
>>>>>>> 91749908f94e59e2ae39cb29b03bd24938bc6ec0
</glyph>
<glyph name="m" format="1">
  <advance width="1805"/>
<<<<<<< HEAD
  <unicode hex="006d"/>
  <outline>
    <contour>
      <point x="150" y="0" type="line" smooth="no"/>
      <point x="150" y="0"/>
      <point x="147" y="994"/>
      <point x="147" y="1096" type="curve" smooth="no"/>
      <point x="255" y="1096" type="line" smooth="no"/>
      <point x="271" y="928" type="line" smooth="no"/>
=======
  <unicode hex="006D"/>
  <outline>
    <contour>
      <point x="150" y="0" type="line"/>
      <point x="150" y="0"/>
      <point x="147" y="994"/>
      <point x="147" y="1096" type="curve"/>
      <point x="255" y="1096" type="line"/>
      <point x="271" y="928" type="line"/>
>>>>>>> 91749908f94e59e2ae39cb29b03bd24938bc6ec0
      <point x="334" y="1035"/>
      <point x="471" y="1116"/>
      <point x="617" y="1116" type="curve" smooth="yes"/>
      <point x="839" y="1116"/>
      <point x="917" y="1001"/>
<<<<<<< HEAD
      <point x="947" y="909" type="curve" smooth="no"/>
=======
      <point x="947" y="909" type="curve"/>
>>>>>>> 91749908f94e59e2ae39cb29b03bd24938bc6ec0
      <point x="1029" y="1054"/>
      <point x="1158" y="1116"/>
      <point x="1316" y="1116" type="curve" smooth="yes"/>
      <point x="1560" y="1116"/>
      <point x="1665" y="973"/>
      <point x="1665" y="708" type="curve" smooth="yes"/>
<<<<<<< HEAD
      <point x="1665" y="0" type="line" smooth="no"/>
      <point x="1541" y="0" type="line" smooth="no"/>
=======
      <point x="1665" y="0" type="line"/>
      <point x="1541" y="0" type="line"/>
>>>>>>> 91749908f94e59e2ae39cb29b03bd24938bc6ec0
      <point x="1541" y="536" type="line" smooth="yes"/>
      <point x="1541" y="797"/>
      <point x="1526" y="1010"/>
      <point x="1310" y="1010" type="curve" smooth="yes"/>
      <point x="1142" y="1010"/>
      <point x="1020" y="905"/>
<<<<<<< HEAD
      <point x="975" y="726" type="curve" smooth="no"/>
      <point x="976" y="674"/>
      <point x="977" y="623"/>
      <point x="980" y="568" type="curve" smooth="no"/>
      <point x="980" y="0" type="line" smooth="no"/>
      <point x="857" y="0" type="line" smooth="no"/>
=======
      <point x="975" y="726" type="curve"/>
      <point x="976" y="674"/>
      <point x="977" y="623"/>
      <point x="980" y="568" type="curve"/>
      <point x="980" y="0" type="line"/>
      <point x="857" y="0" type="line"/>
>>>>>>> 91749908f94e59e2ae39cb29b03bd24938bc6ec0
      <point x="857" y="558" type="line" smooth="yes"/>
      <point x="857" y="817"/>
      <point x="823" y="1010"/>
      <point x="622" y="1010" type="curve" smooth="yes"/>
      <point x="438" y="1010"/>
      <point x="311" y="904"/>
<<<<<<< HEAD
      <point x="276" y="740" type="curve" smooth="no"/>
      <point x="274" y="699"/>
      <point x="274" y="661"/>
      <point x="274" y="623" type="curve" smooth="yes"/>
      <point x="274" y="0" type="line" smooth="no"/>
=======
      <point x="276" y="740" type="curve"/>
      <point x="274" y="699"/>
      <point x="274" y="661"/>
      <point x="274" y="623" type="curve" smooth="yes"/>
      <point x="274" y="0" type="line"/>
>>>>>>> 91749908f94e59e2ae39cb29b03bd24938bc6ec0
    </contour>
  </outline>
</glyph>
<glyph name="asciitilde" format="1">
  <advance width="1236"/>
<<<<<<< HEAD
  <unicode hex="007e"/>
  <outline>
    <contour>
      <point x="156" y="524" type="curve" smooth="no"/>
      <point x="116" y="603" type="line" smooth="no"/>
=======
  <unicode hex="007E"/>
  <outline>
    <contour>
      <point x="156" y="524" type="curve"/>
      <point x="116" y="603" type="line"/>
>>>>>>> 91749908f94e59e2ae39cb29b03bd24938bc6ec0
      <point x="160" y="717"/>
      <point x="251" y="803"/>
      <point x="379" y="803" type="curve" smooth="yes"/>
      <point x="459" y="803"/>
      <point x="514" y="783"/>
<<<<<<< HEAD
      <point x="618" y="735" type="curve" smooth="no"/>
=======
      <point x="618" y="735" type="curve"/>
>>>>>>> 91749908f94e59e2ae39cb29b03bd24938bc6ec0
      <point x="718" y="690"/>
      <point x="801" y="645"/>
      <point x="861" y="645" type="curve" smooth="yes"/>
      <point x="943" y="645"/>
      <point x="1027" y="731"/>
<<<<<<< HEAD
      <point x="1057" y="814" type="curve" smooth="no"/>
      <point x="1106" y="744" type="line" smooth="no"/>
=======
      <point x="1057" y="814" type="curve"/>
      <point x="1106" y="744" type="line"/>
>>>>>>> 91749908f94e59e2ae39cb29b03bd24938bc6ec0
      <point x="1057" y="606"/>
      <point x="985" y="537"/>
      <point x="861" y="537" type="curve" smooth="yes"/>
      <point x="794" y="537"/>
      <point x="721" y="562"/>
<<<<<<< HEAD
      <point x="640" y="598" type="curve" smooth="no"/>
=======
      <point x="640" y="598" type="curve"/>
>>>>>>> 91749908f94e59e2ae39cb29b03bd24938bc6ec0
      <point x="527" y="652"/>
      <point x="446" y="692"/>
      <point x="377" y="692" type="curve" smooth="yes"/>
      <point x="289" y="692"/>
      <point x="204" y="618"/>
    </contour>
  </outline>
</glyph>
<glyph name="registered" format="1">
  <advance width="1865"/>
<<<<<<< HEAD
  <unicode hex="00ae"/>
  <outline>
    <contour>
      <point x="623" y="212" type="line" smooth="no"/>
      <point x="623" y="1202" type="line" smooth="no"/>
=======
  <unicode hex="00AE"/>
  <outline>
    <contour>
      <point x="623" y="212" type="line"/>
      <point x="623" y="1202" type="line"/>
>>>>>>> 91749908f94e59e2ae39cb29b03bd24938bc6ec0
      <point x="966" y="1202" type="line" smooth="yes"/>
      <point x="1202" y="1202"/>
      <point x="1302" y="1099"/>
      <point x="1302" y="936" type="curve" smooth="yes"/>
      <point x="1302" y="825"/>
      <point x="1245" y="694"/>
<<<<<<< HEAD
      <point x="1058" y="678" type="curve" smooth="no"/>
      <point x="1122" y="589"/>
      <point x="1191" y="471"/>
      <point x="1349" y="212" type="curve" smooth="no"/>
      <point x="1214" y="212" type="line" smooth="no"/>
      <point x="1132" y="353"/>
      <point x="1016" y="551"/>
      <point x="941" y="658" type="curve" smooth="no"/>
      <point x="735" y="658" type="line" smooth="no"/>
      <point x="735" y="212" type="line" smooth="no"/>
    </contour>
    <contour>
      <point x="736" y="754" type="line" smooth="no"/>
=======
      <point x="1058" y="678" type="curve"/>
      <point x="1122" y="589"/>
      <point x="1191" y="471"/>
      <point x="1349" y="212" type="curve"/>
      <point x="1214" y="212" type="line"/>
      <point x="1132" y="353"/>
      <point x="1016" y="551"/>
      <point x="941" y="658" type="curve"/>
      <point x="735" y="658" type="line"/>
      <point x="735" y="212" type="line"/>
    </contour>
    <contour>
      <point x="736" y="754" type="line"/>
>>>>>>> 91749908f94e59e2ae39cb29b03bd24938bc6ec0
      <point x="941" y="754" type="line" smooth="yes"/>
      <point x="1105.02" y="754"/>
      <point x="1190" y="789"/>
      <point x="1190" y="924" type="curve" smooth="yes"/>
      <point x="1190" y="1076"/>
      <point x="1118.82" y="1107"/>
      <point x="931" y="1107" type="curve" smooth="yes"/>
<<<<<<< HEAD
      <point x="736" y="1107" type="line" smooth="no"/>
=======
      <point x="736" y="1107" type="line"/>
>>>>>>> 91749908f94e59e2ae39cb29b03bd24938bc6ec0
    </contour>
    <contour>
      <point x="927" y="-24" type="curve" smooth="yes"/>
      <point x="1272.5" y="-23"/>
      <point x="1615" y="217.038"/>
<<<<<<< HEAD
      <point x="1614" y="694" type="curve" smooth="no"/>
=======
      <point x="1614" y="694" type="curve"/>
>>>>>>> 91749908f94e59e2ae39cb29b03bd24938bc6ec0
      <point x="1614" y="1176"/>
      <point x="1262" y="1424"/>
      <point x="915" y="1424" type="curve" smooth="yes"/>
      <point x="576" y="1424"/>
      <point x="241" y="1188"/>
      <point x="241" y="701" type="curve" smooth="yes"/>
      <point x="241" y="216"/>
      <point x="584" y="-24"/>
    </contour>
    <contour>
      <point x="924" y="-116" type="curve" smooth="yes"/>
      <point x="526" y="-116"/>
      <point x="129" y="154"/>
      <point x="129" y="698" type="curve" smooth="yes"/>
      <point x="129" y="1246"/>
      <point x="522" y="1514"/>
      <point x="918" y="1514" type="curve" smooth="yes"/>
      <point x="1320" y="1514"/>
      <point x="1726" y="1238"/>
      <point x="1726" y="698" type="curve" smooth="yes"/>
      <point x="1726" y="157"/>
      <point x="1325" y="-116"/>
    </contour>
  </outline>
</glyph>
<glyph name="uni00B9" format="1">
  <advance width="656"/>
<<<<<<< HEAD
  <unicode hex="00b9"/>
  <outline>
    <contour>
      <point x="181" y="681" type="line" smooth="no"/>
      <point x="181" y="747" type="line" smooth="no"/>
      <point x="285" y="747" type="line" smooth="no"/>
      <point x="285" y="1416" type="line" smooth="no"/>
      <point x="250" y="1390"/>
      <point x="230" y="1379"/>
      <point x="171" y="1344" type="curve" smooth="no"/>
      <point x="171" y="1425" type="line" smooth="no"/>
      <point x="190" y="1436"/>
      <point x="263" y="1477"/>
      <point x="293" y="1514" type="curve" smooth="no"/>
      <point x="378" y="1514" type="line" smooth="no"/>
      <point x="378" y="747" type="line" smooth="no"/>
      <point x="485" y="747" type="line" smooth="no"/>
      <point x="485" y="681" type="line" smooth="no"/>
=======
  <unicode hex="00B9"/>
  <outline>
    <contour>
      <point x="181" y="681" type="line"/>
      <point x="181" y="747" type="line"/>
      <point x="285" y="747" type="line"/>
      <point x="285" y="1416" type="line"/>
      <point x="250" y="1390"/>
      <point x="230" y="1379"/>
      <point x="171" y="1344" type="curve"/>
      <point x="171" y="1425" type="line"/>
      <point x="190" y="1436"/>
      <point x="263" y="1477"/>
      <point x="293" y="1514" type="curve"/>
      <point x="378" y="1514" type="line"/>
      <point x="378" y="747" type="line"/>
      <point x="485" y="747" type="line"/>
      <point x="485" y="681" type="line"/>
>>>>>>> 91749908f94e59e2ae39cb29b03bd24938bc6ec0
    </contour>
  </outline>
</glyph>
<glyph name="divide" format="1">
  <advance width="1099"/>
<<<<<<< HEAD
  <unicode hex="00f7"/>
  <outline>
    <contour>
      <point x="446" y="82" type="line" smooth="no"/>
      <point x="446" y="284" type="line" smooth="no"/>
      <point x="637" y="284" type="line" smooth="no"/>
      <point x="637" y="82" type="line" smooth="no"/>
    </contour>
    <contour>
      <point x="60" y="554" type="line" smooth="no"/>
      <point x="60" y="675" type="line" smooth="no"/>
      <point x="1017" y="675" type="line" smooth="no"/>
      <point x="1017" y="554" type="line" smooth="no"/>
    </contour>
    <contour>
      <point x="446" y="913.3" type="line" smooth="no"/>
      <point x="446" y="1115.3" type="line" smooth="no"/>
      <point x="637" y="1115.3" type="line" smooth="no"/>
      <point x="637" y="913.3" type="line" smooth="no"/>
=======
  <unicode hex="00F7"/>
  <outline>
    <contour>
      <point x="446" y="82" type="line"/>
      <point x="446" y="284" type="line"/>
      <point x="637" y="284" type="line"/>
      <point x="637" y="82" type="line"/>
    </contour>
    <contour>
      <point x="60" y="554" type="line"/>
      <point x="60" y="675" type="line"/>
      <point x="1017" y="675" type="line"/>
      <point x="1017" y="554" type="line"/>
    </contour>
    <contour>
      <point x="446" y="913.3" type="line"/>
      <point x="446" y="1115.3" type="line"/>
      <point x="637" y="1115.3" type="line"/>
      <point x="637" y="913.3" type="line"/>
>>>>>>> 91749908f94e59e2ae39cb29b03bd24938bc6ec0
    </contour>
  </outline>
</glyph>
<glyph name="oslash" format="1">
  <advance width="1190"/>
<<<<<<< HEAD
  <unicode hex="00f8"/>
  <outline>
    <contour>
      <point x="284" y="-311" type="line" smooth="no"/>
      <point x="220" y="-283" type="line" smooth="no"/>
      <point x="351" y="38" type="line" smooth="no"/>
=======
  <unicode hex="00F8"/>
  <outline>
    <contour>
      <point x="284" y="-311" type="line"/>
      <point x="220" y="-283" type="line"/>
      <point x="351" y="38" type="line"/>
>>>>>>> 91749908f94e59e2ae39cb29b03bd24938bc6ec0
      <point x="190" y="130"/>
      <point x="97" y="319"/>
      <point x="97" y="545" type="curve" smooth="yes"/>
      <point x="97" y="870"/>
      <point x="285" y="1116"/>
      <point x="600" y="1116" type="curve" smooth="yes"/>
      <point x="665" y="1116"/>
      <point x="725" y="1105"/>
<<<<<<< HEAD
      <point x="778" y="1086" type="curve" smooth="no"/>
      <point x="910" y="1410" type="line" smooth="no"/>
      <point x="979" y="1386" type="line" smooth="no"/>
      <point x="844" y="1055" type="line" smooth="no"/>
=======
      <point x="778" y="1086" type="curve"/>
      <point x="910" y="1410" type="line"/>
      <point x="979" y="1386" type="line"/>
      <point x="844" y="1055" type="line"/>
>>>>>>> 91749908f94e59e2ae39cb29b03bd24938bc6ec0
      <point x="1005" y="963"/>
      <point x="1093" y="773"/>
      <point x="1093" y="547" type="curve" smooth="yes"/>
      <point x="1093" y="222"/>
      <point x="910" y="-24"/>
      <point x="592" y="-24" type="curve" smooth="yes"/>
      <point x="527" y="-24"/>
      <point x="468" y="-13"/>
<<<<<<< HEAD
      <point x="414" y="7" type="curve" smooth="no"/>
    </contour>
    <contour>
      <point x="392" y="139" type="curve" smooth="no"/>
      <point x="739" y="990" type="line" smooth="no"/>
=======
      <point x="414" y="7" type="curve"/>
    </contour>
    <contour>
      <point x="392" y="139" type="curve"/>
      <point x="739" y="990" type="line"/>
>>>>>>> 91749908f94e59e2ae39cb29b03bd24938bc6ec0
      <point x="698" y="1006"/>
      <point x="651" y="1015"/>
      <point x="597" y="1015" type="curve" smooth="yes"/>
      <point x="349" y="1015"/>
      <point x="230" y="805"/>
      <point x="230" y="542" type="curve" smooth="yes"/>
      <point x="230" y="370"/>
      <point x="283" y="220"/>
    </contour>
    <contour>
      <point x="601" y="75" type="curve" smooth="yes"/>
      <point x="849" y="75"/>
      <point x="961" y="282"/>
      <point x="961" y="545" type="curve" smooth="yes"/>
      <point x="961" y="724"/>
      <point x="913" y="875"/>
<<<<<<< HEAD
      <point x="802" y="955" type="curve" smooth="no"/>
      <point x="454" y="104" type="line" smooth="no"/>
=======
      <point x="802" y="955" type="curve"/>
      <point x="454" y="104" type="line"/>
>>>>>>> 91749908f94e59e2ae39cb29b03bd24938bc6ec0
      <point x="497" y="85"/>
      <point x="546" y="75"/>
    </contour>
  </outline>
</glyph>
<glyph name="dcaron" format="1">
  <advance width="1183"/>
<<<<<<< HEAD
  <unicode hex="010f"/>
  <outline>
    <component base="d"/>
    <contour>
      <point x="1189" y="1082" type="line" smooth="no"/>
      <point x="1327" y="1532" type="line" smooth="no"/>
      <point x="1463" y="1532" type="line" smooth="no"/>
      <point x="1293" y="1082" type="line" smooth="no"/>
=======
  <unicode hex="010F"/>
  <outline>
    <component base="d"/>
    <contour>
      <point x="1189" y="1082" type="line"/>
      <point x="1327" y="1532" type="line"/>
      <point x="1463" y="1532" type="line"/>
      <point x="1293" y="1082" type="line"/>
>>>>>>> 91749908f94e59e2ae39cb29b03bd24938bc6ec0
    </contour>
  </outline>
</glyph>
<glyph name="dotlessi" format="1">
  <advance width="376"/>
  <unicode hex="0131"/>
  <outline>
    <contour>
<<<<<<< HEAD
      <point x="138" y="0" type="line" smooth="no"/>
      <point x="138" y="1096" type="line" smooth="no"/>
      <point x="263" y="1096" type="line" smooth="no"/>
      <point x="263" y="0" type="line" smooth="no"/>
    </contour>
  </outline>
=======
      <point x="138" y="0" type="line"/>
      <point x="138" y="1096" type="line"/>
      <point x="263" y="1096" type="line"/>
      <point x="263" y="0" type="line"/>
    </contour>
  </outline>
>>>>>>> 91749908f94e59e2ae39cb29b03bd24938bc6ec0
</glyph>
<glyph name="tcaron" format="1">
  <advance width="676"/>
  <unicode hex="0165"/>
  <outline>
    <component base="t"/>
    <contour>
<<<<<<< HEAD
      <point x="796" y="901" type="line" smooth="no"/>
      <point x="934" y="1351" type="line" smooth="no"/>
      <point x="1070" y="1351" type="line" smooth="no"/>
      <point x="900" y="901" type="line" smooth="no"/>
=======
      <point x="796" y="901" type="line"/>
      <point x="934" y="1351" type="line"/>
      <point x="1070" y="1351" type="line"/>
      <point x="900" y="901" type="line"/>
>>>>>>> 91749908f94e59e2ae39cb29b03bd24938bc6ec0
    </contour>
  </outline>
</glyph>
<glyph name="uni0307" format="1">
  <advance width="364"/>
  <unicode hex="0307"/>
  <outline>
    <contour>
<<<<<<< HEAD
      <point x="115" y="1357" type="line" smooth="no"/>
      <point x="115" y="1525" type="line" smooth="no"/>
      <point x="282" y="1525" type="line" smooth="no"/>
      <point x="282" y="1357" type="line" smooth="no"/>
=======
      <point x="115" y="1357" type="line"/>
      <point x="115" y="1525" type="line"/>
      <point x="282" y="1525" type="line"/>
      <point x="282" y="1357" type="line"/>
>>>>>>> 91749908f94e59e2ae39cb29b03bd24938bc6ec0
    </contour>
  </outline>
</glyph>
<glyph name="uni0311" format="1">
  <advance width="792"/>
  <unicode hex="0311"/>
  <outline>
    <contour>
<<<<<<< HEAD
      <point x="167" y="1345" type="line" smooth="no"/>
=======
      <point x="167" y="1345" type="line"/>
>>>>>>> 91749908f94e59e2ae39cb29b03bd24938bc6ec0
      <point x="167.253" y="1500.18"/>
      <point x="282.627" y="1576.91"/>
      <point x="398.373" y="1576.91" type="curve" smooth="yes"/>
      <point x="514.998" y="1576.91"/>
      <point x="632" y="1499.01"/>
<<<<<<< HEAD
      <point x="632" y="1345" type="curve" smooth="no"/>
      <point x="538" y="1345" type="line" smooth="no"/>
=======
      <point x="632" y="1345" type="curve"/>
      <point x="538" y="1345" type="line"/>
>>>>>>> 91749908f94e59e2ae39cb29b03bd24938bc6ec0
      <point x="538" y="1441.39"/>
      <point x="468.114" y="1489.72"/>
      <point x="398.297" y="1489.72" type="curve" smooth="yes"/>
      <point x="328.615" y="1489.72"/>
      <point x="259" y="1441.58"/>
<<<<<<< HEAD
      <point x="259" y="1345" type="curve" smooth="no"/>
=======
      <point x="259" y="1345" type="curve"/>
>>>>>>> 91749908f94e59e2ae39cb29b03bd24938bc6ec0
    </contour>
  </outline>
</glyph>
<glyph name="daggerdbl" format="1">
  <advance width="929"/>
  <unicode hex="2021"/>
  <outline>
    <contour>
<<<<<<< HEAD
      <point x="418" y="218" type="line" smooth="no"/>
      <point x="418" y="534" type="line" smooth="no"/>
      <point x="98" y="534" type="line" smooth="no"/>
      <point x="98" y="654" type="line" smooth="no"/>
      <point x="418" y="654" type="line" smooth="no"/>
      <point x="418" y="1125" type="line" smooth="no"/>
      <point x="104" y="1125" type="line" smooth="no"/>
      <point x="104" y="1249" type="line" smooth="no"/>
      <point x="418" y="1249" type="line" smooth="no"/>
      <point x="418" y="1615" type="line" smooth="no"/>
      <point x="516" y="1615" type="line" smooth="no"/>
      <point x="516" y="1249" type="line" smooth="no"/>
      <point x="837" y="1249" type="line" smooth="no"/>
      <point x="837" y="1125" type="line" smooth="no"/>
      <point x="516" y="1125" type="line" smooth="no"/>
      <point x="516" y="654" type="line" smooth="no"/>
      <point x="828" y="654" type="line" smooth="no"/>
      <point x="828" y="534" type="line" smooth="no"/>
      <point x="516" y="534" type="line" smooth="no"/>
      <point x="516" y="218" type="line" smooth="no"/>
=======
      <point x="418" y="218" type="line"/>
      <point x="418" y="534" type="line"/>
      <point x="98" y="534" type="line"/>
      <point x="98" y="654" type="line"/>
      <point x="418" y="654" type="line"/>
      <point x="418" y="1125" type="line"/>
      <point x="104" y="1125" type="line"/>
      <point x="104" y="1249" type="line"/>
      <point x="418" y="1249" type="line"/>
      <point x="418" y="1615" type="line"/>
      <point x="516" y="1615" type="line"/>
      <point x="516" y="1249" type="line"/>
      <point x="837" y="1249" type="line"/>
      <point x="837" y="1125" type="line"/>
      <point x="516" y="1125" type="line"/>
      <point x="516" y="654" type="line"/>
      <point x="828" y="654" type="line"/>
      <point x="828" y="534" type="line"/>
      <point x="516" y="534" type="line"/>
      <point x="516" y="218" type="line"/>
>>>>>>> 91749908f94e59e2ae39cb29b03bd24938bc6ec0
    </contour>
  </outline>
</glyph>
<glyph name="minus" format="1">
  <advance width="1212"/>
  <unicode hex="2212"/>
  <outline>
    <contour>
<<<<<<< HEAD
      <point x="123" y="578" type="line" smooth="no"/>
      <point x="123" y="701" type="line" smooth="no"/>
      <point x="1098" y="701" type="line" smooth="no"/>
      <point x="1098" y="578" type="line" smooth="no"/>
=======
      <point x="123" y="578" type="line"/>
      <point x="123" y="701" type="line"/>
      <point x="1098" y="701" type="line"/>
      <point x="1098" y="578" type="line"/>
>>>>>>> 91749908f94e59e2ae39cb29b03bd24938bc6ec0
    </contour>
  </outline>
</glyph>
<glyph name="approxequal" format="1">
  <advance width="1315"/>
  <unicode hex="2248"/>
  <outline>
    <contour>
<<<<<<< HEAD
      <point x="140" y="367" type="line" smooth="no"/>
=======
      <point x="140" y="367" type="line"/>
>>>>>>> 91749908f94e59e2ae39cb29b03bd24938bc6ec0
      <point x="166" y="573"/>
      <point x="269" y="686"/>
      <point x="429" y="686" type="curve" smooth="yes"/>
      <point x="523" y="686"/>
      <point x="606" y="634"/>
      <point x="684" y="585" type="curve" smooth="yes"/>
      <point x="760" y="537"/>
      <point x="834" y="481"/>
      <point x="894" y="481" type="curve" smooth="yes"/>
      <point x="985" y="481"/>
      <point x="1035" y="562"/>
<<<<<<< HEAD
      <point x="1056" y="684" type="curve" smooth="no"/>
      <point x="1161" y="711" type="line" smooth="no"/>
=======
      <point x="1056" y="684" type="curve"/>
      <point x="1161" y="711" type="line"/>
>>>>>>> 91749908f94e59e2ae39cb29b03bd24938bc6ec0
      <point x="1136" y="509"/>
      <point x="1078" y="394"/>
      <point x="897" y="394" type="curve" smooth="yes"/>
      <point x="820" y="394"/>
      <point x="733" y="431"/>
<<<<<<< HEAD
      <point x="616" y="510" type="curve" smooth="no"/>
=======
      <point x="616" y="510" type="curve"/>
>>>>>>> 91749908f94e59e2ae39cb29b03bd24938bc6ec0
      <point x="547" y="559"/>
      <point x="485" y="594"/>
      <point x="431" y="594" type="curve" smooth="yes"/>
      <point x="328" y="594"/>
      <point x="275" y="523"/>
<<<<<<< HEAD
      <point x="246" y="398" type="curve" smooth="no"/>
    </contour>
    <contour>
      <point x="137" y="758" type="line" smooth="no"/>
=======
      <point x="246" y="398" type="curve"/>
    </contour>
    <contour>
      <point x="137" y="758" type="line"/>
>>>>>>> 91749908f94e59e2ae39cb29b03bd24938bc6ec0
      <point x="161" y="961"/>
      <point x="269" y="1076"/>
      <point x="428" y="1076" type="curve" smooth="yes"/>
      <point x="515" y="1076"/>
      <point x="588" y="1034"/>
      <point x="687" y="966" type="curve" smooth="yes"/>
      <point x="781" y="901"/>
      <point x="836" y="871"/>
      <point x="892" y="871" type="curve" smooth="yes"/>
      <point x="982" y="871"/>
      <point x="1032" y="949"/>
<<<<<<< HEAD
      <point x="1052" y="1073" type="curve" smooth="no"/>
      <point x="1158" y="1103" type="line" smooth="no"/>
=======
      <point x="1052" y="1073" type="curve"/>
      <point x="1158" y="1103" type="line"/>
>>>>>>> 91749908f94e59e2ae39cb29b03bd24938bc6ec0
      <point x="1134" y="900"/>
      <point x="1070" y="788"/>
      <point x="893" y="788" type="curve" smooth="yes"/>
      <point x="812" y="788"/>
      <point x="728" y="823"/>
      <point x="613" y="904" type="curve" smooth="yes"/>
      <point x="544" y="953"/>
      <point x="481" y="987"/>
      <point x="427" y="987" type="curve" smooth="yes"/>
      <point x="324" y="987"/>
      <point x="271" y="920"/>
<<<<<<< HEAD
      <point x="246" y="796" type="curve" smooth="no"/>
=======
      <point x="246" y="796" type="curve"/>
>>>>>>> 91749908f94e59e2ae39cb29b03bd24938bc6ec0
    </contour>
  </outline>
</glyph>
